<mxfile host="app.diagrams.net" modified="2024-04-07T10:21:42.272Z" agent="Mozilla/5.0 (Windows NT 10.0; Win64; x64) AppleWebKit/537.36 (KHTML, like Gecko) Chrome/121.0.0.0 Safari/537.36 OPR/107.0.0.0" etag="oaN72S-folz8xMoC6_9N" version="24.2.2" type="device">
  <diagram name="Page-1" id="QCi-x4vuY8TqEwZbG3ux">
    <mxGraphModel dx="1009" dy="573" grid="1" gridSize="10" guides="1" tooltips="1" connect="1" arrows="1" fold="1" page="1" pageScale="1" pageWidth="850" pageHeight="1100" math="0" shadow="0">
      <root>
        <mxCell id="0" />
        <mxCell id="1" parent="0" />
        <mxCell id="nDQjw-isrJEir62hwn1z-4" style="edgeStyle=orthogonalEdgeStyle;rounded=0;orthogonalLoop=1;jettySize=auto;html=1;exitX=0.5;exitY=1;exitDx=0;exitDy=0;entryX=0.5;entryY=0;entryDx=0;entryDy=0;" edge="1" parent="1" source="nDQjw-isrJEir62hwn1z-2" target="nDQjw-isrJEir62hwn1z-3">
          <mxGeometry relative="1" as="geometry" />
        </mxCell>
        <mxCell id="nDQjw-isrJEir62hwn1z-2" value="&lt;font color=&quot;#050505&quot; style=&quot;background-color: rgb(242, 242, 242);&quot;&gt;START&lt;/font&gt;" style="rounded=1;whiteSpace=wrap;html=1;" vertex="1" parent="1">
          <mxGeometry x="400" y="40" width="120" height="60" as="geometry" />
        </mxCell>
        <mxCell id="nDQjw-isrJEir62hwn1z-6" style="edgeStyle=orthogonalEdgeStyle;rounded=0;orthogonalLoop=1;jettySize=auto;html=1;" edge="1" parent="1" source="nDQjw-isrJEir62hwn1z-3" target="nDQjw-isrJEir62hwn1z-5">
          <mxGeometry relative="1" as="geometry" />
        </mxCell>
        <mxCell id="nDQjw-isrJEir62hwn1z-3" value="a" style="shape=parallelogram;perimeter=parallelogramPerimeter;whiteSpace=wrap;html=1;fixedSize=1;" vertex="1" parent="1">
          <mxGeometry x="400" y="140" width="120" height="60" as="geometry" />
        </mxCell>
        <mxCell id="nDQjw-isrJEir62hwn1z-13" style="edgeStyle=orthogonalEdgeStyle;rounded=0;orthogonalLoop=1;jettySize=auto;html=1;" edge="1" parent="1" source="nDQjw-isrJEir62hwn1z-5" target="nDQjw-isrJEir62hwn1z-12">
          <mxGeometry relative="1" as="geometry" />
        </mxCell>
        <mxCell id="nDQjw-isrJEir62hwn1z-16" value="true" style="edgeLabel;html=1;align=center;verticalAlign=middle;resizable=0;points=[];" vertex="1" connectable="0" parent="nDQjw-isrJEir62hwn1z-13">
          <mxGeometry x="-0.4667" relative="1" as="geometry">
            <mxPoint as="offset" />
          </mxGeometry>
        </mxCell>
        <mxCell id="nDQjw-isrJEir62hwn1z-5" value="a%3==0" style="rhombus;whiteSpace=wrap;html=1;" vertex="1" parent="1">
          <mxGeometry x="420" y="250" width="80" height="80" as="geometry" />
        </mxCell>
        <mxCell id="nDQjw-isrJEir62hwn1z-9" value="" style="endArrow=none;html=1;rounded=0;entryX=1;entryY=0.5;entryDx=0;entryDy=0;" edge="1" parent="1" target="nDQjw-isrJEir62hwn1z-5">
          <mxGeometry width="50" height="50" relative="1" as="geometry">
            <mxPoint x="595" y="290" as="sourcePoint" />
            <mxPoint x="485" y="300" as="targetPoint" />
          </mxGeometry>
        </mxCell>
        <mxCell id="nDQjw-isrJEir62hwn1z-11" value="false" style="edgeLabel;html=1;align=center;verticalAlign=middle;resizable=0;points=[];" vertex="1" connectable="0" parent="nDQjw-isrJEir62hwn1z-9">
          <mxGeometry x="0.0737" y="-4" relative="1" as="geometry">
            <mxPoint as="offset" />
          </mxGeometry>
        </mxCell>
        <mxCell id="nDQjw-isrJEir62hwn1z-17" style="edgeStyle=orthogonalEdgeStyle;rounded=0;orthogonalLoop=1;jettySize=auto;html=1;" edge="1" parent="1" source="nDQjw-isrJEir62hwn1z-12">
          <mxGeometry relative="1" as="geometry">
            <mxPoint x="595" y="290" as="targetPoint" />
          </mxGeometry>
        </mxCell>
        <mxCell id="nDQjw-isrJEir62hwn1z-18" value="false" style="edgeLabel;html=1;align=center;verticalAlign=middle;resizable=0;points=[];" vertex="1" connectable="0" parent="nDQjw-isrJEir62hwn1z-17">
          <mxGeometry x="-0.7512" y="4" relative="1" as="geometry">
            <mxPoint as="offset" />
          </mxGeometry>
        </mxCell>
        <mxCell id="nDQjw-isrJEir62hwn1z-19" style="edgeStyle=orthogonalEdgeStyle;rounded=0;orthogonalLoop=1;jettySize=auto;html=1;" edge="1" parent="1" source="nDQjw-isrJEir62hwn1z-12">
          <mxGeometry relative="1" as="geometry">
            <mxPoint x="460" y="520" as="targetPoint" />
          </mxGeometry>
        </mxCell>
        <mxCell id="nDQjw-isrJEir62hwn1z-21" value="true" style="edgeLabel;html=1;align=center;verticalAlign=middle;resizable=0;points=[];" vertex="1" connectable="0" parent="nDQjw-isrJEir62hwn1z-19">
          <mxGeometry x="-0.0496" relative="1" as="geometry">
            <mxPoint as="offset" />
          </mxGeometry>
        </mxCell>
        <mxCell id="nDQjw-isrJEir62hwn1z-12" value="a%5==0" style="rhombus;whiteSpace=wrap;html=1;" vertex="1" parent="1">
          <mxGeometry x="420" y="390" width="80" height="80" as="geometry" />
        </mxCell>
        <mxCell id="nDQjw-isrJEir62hwn1z-14" value="" style="endArrow=none;html=1;rounded=0;" edge="1" parent="1">
          <mxGeometry width="50" height="50" relative="1" as="geometry">
            <mxPoint x="595" y="160" as="sourcePoint" />
            <mxPoint x="595" y="290" as="targetPoint" />
          </mxGeometry>
        </mxCell>
        <mxCell id="nDQjw-isrJEir62hwn1z-15" value="" style="endArrow=classic;html=1;rounded=0;entryX=1;entryY=0.25;entryDx=0;entryDy=0;" edge="1" parent="1">
          <mxGeometry width="50" height="50" relative="1" as="geometry">
            <mxPoint x="595" y="160" as="sourcePoint" />
            <mxPoint x="514.5454545454545" y="160.00363636363636" as="targetPoint" />
            <Array as="points" />
          </mxGeometry>
        </mxCell>
        <mxCell id="nDQjw-isrJEir62hwn1z-20" value="END" style="rounded=1;whiteSpace=wrap;html=1;" vertex="1" parent="1">
          <mxGeometry x="400" y="520" width="120" height="60" as="geometry" />
        </mxCell>
        <mxCell id="nDQjw-isrJEir62hwn1z-23" style="edgeStyle=orthogonalEdgeStyle;rounded=0;orthogonalLoop=1;jettySize=auto;html=1;" edge="1" parent="1" source="nDQjw-isrJEir62hwn1z-22">
          <mxGeometry relative="1" as="geometry">
            <mxPoint x="180" y="150" as="targetPoint" />
          </mxGeometry>
        </mxCell>
        <mxCell id="nDQjw-isrJEir62hwn1z-22" value="START" style="rounded=1;whiteSpace=wrap;html=1;" vertex="1" parent="1">
          <mxGeometry x="120" y="40" width="120" height="60" as="geometry" />
        </mxCell>
        <mxCell id="nDQjw-isrJEir62hwn1z-25" style="edgeStyle=orthogonalEdgeStyle;rounded=0;orthogonalLoop=1;jettySize=auto;html=1;" edge="1" parent="1" source="nDQjw-isrJEir62hwn1z-24">
          <mxGeometry relative="1" as="geometry">
            <mxPoint x="180" y="270" as="targetPoint" />
          </mxGeometry>
        </mxCell>
        <mxCell id="nDQjw-isrJEir62hwn1z-24" value="a" style="shape=parallelogram;perimeter=parallelogramPerimeter;whiteSpace=wrap;html=1;fixedSize=1;" vertex="1" parent="1">
          <mxGeometry x="120" y="150" width="120" height="60" as="geometry" />
        </mxCell>
        <mxCell id="nDQjw-isrJEir62hwn1z-27" style="edgeStyle=orthogonalEdgeStyle;rounded=0;orthogonalLoop=1;jettySize=auto;html=1;" edge="1" parent="1" source="nDQjw-isrJEir62hwn1z-26">
          <mxGeometry relative="1" as="geometry">
            <mxPoint x="320" y="400" as="targetPoint" />
          </mxGeometry>
        </mxCell>
        <mxCell id="nDQjw-isrJEir62hwn1z-95" value="true" style="edgeLabel;html=1;align=center;verticalAlign=middle;resizable=0;points=[];" vertex="1" connectable="0" parent="nDQjw-isrJEir62hwn1z-27">
          <mxGeometry x="-0.4741" y="-5" relative="1" as="geometry">
            <mxPoint x="3" y="-5" as="offset" />
          </mxGeometry>
        </mxCell>
        <mxCell id="nDQjw-isrJEir62hwn1z-28" style="edgeStyle=orthogonalEdgeStyle;rounded=0;orthogonalLoop=1;jettySize=auto;html=1;" edge="1" parent="1" source="nDQjw-isrJEir62hwn1z-26">
          <mxGeometry relative="1" as="geometry">
            <mxPoint x="40" y="400" as="targetPoint" />
          </mxGeometry>
        </mxCell>
        <mxCell id="nDQjw-isrJEir62hwn1z-96" value="false" style="edgeLabel;html=1;align=center;verticalAlign=middle;resizable=0;points=[];" vertex="1" connectable="0" parent="nDQjw-isrJEir62hwn1z-28">
          <mxGeometry x="-0.4759" y="-3" relative="1" as="geometry">
            <mxPoint as="offset" />
          </mxGeometry>
        </mxCell>
        <mxCell id="nDQjw-isrJEir62hwn1z-26" value="a%3==0 &amp;amp;&amp;amp;&lt;div&gt;a%5==0&lt;/div&gt;" style="rhombus;whiteSpace=wrap;html=1;" vertex="1" parent="1">
          <mxGeometry x="125" y="270" width="110" height="110" as="geometry" />
        </mxCell>
        <mxCell id="nDQjw-isrJEir62hwn1z-29" value="3-e ve 5-e tam bolunmur" style="shape=document;whiteSpace=wrap;html=1;boundedLbl=1;" vertex="1" parent="1">
          <mxGeometry x="5" y="400" width="120" height="80" as="geometry" />
        </mxCell>
        <mxCell id="nDQjw-isrJEir62hwn1z-30" value="3-e ve 5-e tam bolunur" style="shape=document;whiteSpace=wrap;html=1;boundedLbl=1;" vertex="1" parent="1">
          <mxGeometry x="250" y="400" width="120" height="80" as="geometry" />
        </mxCell>
        <mxCell id="nDQjw-isrJEir62hwn1z-32" style="edgeStyle=orthogonalEdgeStyle;rounded=0;orthogonalLoop=1;jettySize=auto;html=1;" edge="1" parent="1" source="nDQjw-isrJEir62hwn1z-31">
          <mxGeometry relative="1" as="geometry">
            <mxPoint x="425" y="800" as="targetPoint" />
          </mxGeometry>
        </mxCell>
        <mxCell id="nDQjw-isrJEir62hwn1z-31" value="START" style="rounded=1;whiteSpace=wrap;html=1;" vertex="1" parent="1">
          <mxGeometry x="365" y="690" width="120" height="60" as="geometry" />
        </mxCell>
        <mxCell id="nDQjw-isrJEir62hwn1z-35" style="edgeStyle=orthogonalEdgeStyle;rounded=0;orthogonalLoop=1;jettySize=auto;html=1;" edge="1" parent="1" source="nDQjw-isrJEir62hwn1z-34">
          <mxGeometry relative="1" as="geometry">
            <mxPoint x="425" y="910" as="targetPoint" />
          </mxGeometry>
        </mxCell>
        <mxCell id="nDQjw-isrJEir62hwn1z-34" value="a b c d e f" style="shape=parallelogram;perimeter=parallelogramPerimeter;whiteSpace=wrap;html=1;fixedSize=1;" vertex="1" parent="1">
          <mxGeometry x="365" y="800" width="120" height="60" as="geometry" />
        </mxCell>
        <mxCell id="nDQjw-isrJEir62hwn1z-53" style="edgeStyle=orthogonalEdgeStyle;rounded=0;orthogonalLoop=1;jettySize=auto;html=1;entryX=0.5;entryY=0;entryDx=0;entryDy=0;" edge="1" parent="1" source="nDQjw-isrJEir62hwn1z-36" target="nDQjw-isrJEir62hwn1z-44">
          <mxGeometry relative="1" as="geometry" />
        </mxCell>
        <mxCell id="nDQjw-isrJEir62hwn1z-54" value="true" style="edgeLabel;html=1;align=center;verticalAlign=middle;resizable=0;points=[];" vertex="1" connectable="0" parent="nDQjw-isrJEir62hwn1z-53">
          <mxGeometry x="-0.2542" y="-2" relative="1" as="geometry">
            <mxPoint as="offset" />
          </mxGeometry>
        </mxCell>
        <mxCell id="nDQjw-isrJEir62hwn1z-36" value="a&amp;gt;0&amp;amp;&amp;amp; b&amp;gt;0&amp;amp;&amp;amp; c&amp;gt;0&amp;amp;&amp;amp; d&amp;gt;0&amp;amp;&amp;amp; e&amp;gt;0" style="rhombus;whiteSpace=wrap;html=1;" vertex="1" parent="1">
          <mxGeometry x="320" y="910" width="210" height="190" as="geometry" />
        </mxCell>
        <mxCell id="nDQjw-isrJEir62hwn1z-38" value="" style="endArrow=none;html=1;rounded=0;" edge="1" parent="1">
          <mxGeometry width="50" height="50" relative="1" as="geometry">
            <mxPoint x="520" y="990" as="sourcePoint" />
            <mxPoint x="520" y="950" as="targetPoint" />
          </mxGeometry>
        </mxCell>
        <mxCell id="nDQjw-isrJEir62hwn1z-42" value="false" style="edgeLabel;html=1;align=center;verticalAlign=middle;resizable=0;points=[];" vertex="1" connectable="0" parent="nDQjw-isrJEir62hwn1z-38">
          <mxGeometry x="-0.1876" y="2" relative="1" as="geometry">
            <mxPoint as="offset" />
          </mxGeometry>
        </mxCell>
        <mxCell id="nDQjw-isrJEir62hwn1z-39" value="" style="endArrow=none;html=1;rounded=0;" edge="1" parent="1">
          <mxGeometry width="50" height="50" relative="1" as="geometry">
            <mxPoint x="520" y="950" as="sourcePoint" />
            <mxPoint x="520" y="840" as="targetPoint" />
          </mxGeometry>
        </mxCell>
        <mxCell id="nDQjw-isrJEir62hwn1z-40" value="" style="endArrow=classic;html=1;rounded=0;" edge="1" parent="1">
          <mxGeometry width="50" height="50" relative="1" as="geometry">
            <mxPoint x="520" y="840" as="sourcePoint" />
            <mxPoint x="470" y="840" as="targetPoint" />
          </mxGeometry>
        </mxCell>
        <mxCell id="nDQjw-isrJEir62hwn1z-46" style="edgeStyle=orthogonalEdgeStyle;rounded=0;orthogonalLoop=1;jettySize=auto;html=1;" edge="1" parent="1" source="nDQjw-isrJEir62hwn1z-44">
          <mxGeometry relative="1" as="geometry">
            <mxPoint x="430" y="1264" as="targetPoint" />
          </mxGeometry>
        </mxCell>
        <mxCell id="nDQjw-isrJEir62hwn1z-44" value="f=a+b+c+d+e" style="rounded=0;whiteSpace=wrap;html=1;" vertex="1" parent="1">
          <mxGeometry x="370" y="1154" width="120" height="60" as="geometry" />
        </mxCell>
        <mxCell id="nDQjw-isrJEir62hwn1z-48" style="edgeStyle=orthogonalEdgeStyle;rounded=0;orthogonalLoop=1;jettySize=auto;html=1;" edge="1" parent="1">
          <mxGeometry relative="1" as="geometry">
            <mxPoint x="430" y="1374" as="targetPoint" />
            <mxPoint x="430" y="1324" as="sourcePoint" />
          </mxGeometry>
        </mxCell>
        <mxCell id="nDQjw-isrJEir62hwn1z-49" value="END" style="rounded=1;whiteSpace=wrap;html=1;" vertex="1" parent="1">
          <mxGeometry x="370" y="1374" width="120" height="60" as="geometry" />
        </mxCell>
        <mxCell id="nDQjw-isrJEir62hwn1z-50" value="f" style="shape=parallelogram;perimeter=parallelogramPerimeter;whiteSpace=wrap;html=1;fixedSize=1;" vertex="1" parent="1">
          <mxGeometry x="370" y="1264" width="120" height="60" as="geometry" />
        </mxCell>
        <mxCell id="nDQjw-isrJEir62hwn1z-55" value="1" style="text;html=1;align=center;verticalAlign=middle;whiteSpace=wrap;rounded=0;" vertex="1" parent="1">
          <mxGeometry x="400" y="650" width="60" height="30" as="geometry" />
        </mxCell>
        <mxCell id="nDQjw-isrJEir62hwn1z-57" style="edgeStyle=orthogonalEdgeStyle;rounded=0;orthogonalLoop=1;jettySize=auto;html=1;" edge="1" parent="1" source="nDQjw-isrJEir62hwn1z-56">
          <mxGeometry relative="1" as="geometry">
            <mxPoint x="430" y="1680" as="targetPoint" />
          </mxGeometry>
        </mxCell>
        <mxCell id="nDQjw-isrJEir62hwn1z-56" value="START" style="rounded=1;whiteSpace=wrap;html=1;" vertex="1" parent="1">
          <mxGeometry x="370" y="1530" width="120" height="60" as="geometry" />
        </mxCell>
        <mxCell id="nDQjw-isrJEir62hwn1z-59" style="edgeStyle=orthogonalEdgeStyle;rounded=0;orthogonalLoop=1;jettySize=auto;html=1;" edge="1" parent="1" source="nDQjw-isrJEir62hwn1z-58">
          <mxGeometry relative="1" as="geometry">
            <mxPoint x="430" y="1800" as="targetPoint" />
          </mxGeometry>
        </mxCell>
        <mxCell id="nDQjw-isrJEir62hwn1z-58" value="a, S" style="shape=parallelogram;perimeter=parallelogramPerimeter;whiteSpace=wrap;html=1;fixedSize=1;" vertex="1" parent="1">
          <mxGeometry x="370" y="1680" width="120" height="60" as="geometry" />
        </mxCell>
        <mxCell id="nDQjw-isrJEir62hwn1z-62" style="edgeStyle=orthogonalEdgeStyle;rounded=0;orthogonalLoop=1;jettySize=auto;html=1;entryX=0.5;entryY=0;entryDx=0;entryDy=0;" edge="1" parent="1" source="nDQjw-isrJEir62hwn1z-60" target="nDQjw-isrJEir62hwn1z-61">
          <mxGeometry relative="1" as="geometry" />
        </mxCell>
        <mxCell id="nDQjw-isrJEir62hwn1z-60" value="S=a*a" style="rounded=0;whiteSpace=wrap;html=1;" vertex="1" parent="1">
          <mxGeometry x="370" y="1800" width="120" height="60" as="geometry" />
        </mxCell>
        <mxCell id="nDQjw-isrJEir62hwn1z-64" style="edgeStyle=orthogonalEdgeStyle;rounded=0;orthogonalLoop=1;jettySize=auto;html=1;" edge="1" parent="1" source="nDQjw-isrJEir62hwn1z-61" target="nDQjw-isrJEir62hwn1z-63">
          <mxGeometry relative="1" as="geometry" />
        </mxCell>
        <mxCell id="nDQjw-isrJEir62hwn1z-61" value="S" style="shape=parallelogram;perimeter=parallelogramPerimeter;whiteSpace=wrap;html=1;fixedSize=1;" vertex="1" parent="1">
          <mxGeometry x="370" y="1920" width="120" height="60" as="geometry" />
        </mxCell>
        <mxCell id="nDQjw-isrJEir62hwn1z-63" value="END" style="rounded=1;whiteSpace=wrap;html=1;" vertex="1" parent="1">
          <mxGeometry x="370" y="2040" width="120" height="60" as="geometry" />
        </mxCell>
        <mxCell id="nDQjw-isrJEir62hwn1z-67" style="edgeStyle=orthogonalEdgeStyle;rounded=0;orthogonalLoop=1;jettySize=auto;html=1;entryX=0.5;entryY=0;entryDx=0;entryDy=0;" edge="1" parent="1" source="nDQjw-isrJEir62hwn1z-65" target="nDQjw-isrJEir62hwn1z-66">
          <mxGeometry relative="1" as="geometry" />
        </mxCell>
        <mxCell id="nDQjw-isrJEir62hwn1z-65" value="START" style="rounded=1;whiteSpace=wrap;html=1;" vertex="1" parent="1">
          <mxGeometry x="370" y="2220" width="120" height="60" as="geometry" />
        </mxCell>
        <mxCell id="nDQjw-isrJEir62hwn1z-101" style="edgeStyle=orthogonalEdgeStyle;rounded=0;orthogonalLoop=1;jettySize=auto;html=1;entryX=0.5;entryY=0;entryDx=0;entryDy=0;" edge="1" parent="1" source="nDQjw-isrJEir62hwn1z-66" target="nDQjw-isrJEir62hwn1z-100">
          <mxGeometry relative="1" as="geometry" />
        </mxCell>
        <mxCell id="nDQjw-isrJEir62hwn1z-66" value="a, b, c" style="shape=parallelogram;perimeter=parallelogramPerimeter;whiteSpace=wrap;html=1;fixedSize=1;" vertex="1" parent="1">
          <mxGeometry x="370" y="2300" width="120" height="60" as="geometry" />
        </mxCell>
        <mxCell id="nDQjw-isrJEir62hwn1z-70" style="edgeStyle=orthogonalEdgeStyle;rounded=0;orthogonalLoop=1;jettySize=auto;html=1;" edge="1" parent="1" source="nDQjw-isrJEir62hwn1z-69">
          <mxGeometry relative="1" as="geometry">
            <mxPoint x="600" y="2690" as="targetPoint" />
            <Array as="points">
              <mxPoint x="601" y="2590" />
            </Array>
          </mxGeometry>
        </mxCell>
        <mxCell id="nDQjw-isrJEir62hwn1z-73" value="false" style="edgeLabel;html=1;align=center;verticalAlign=middle;resizable=0;points=[];" vertex="1" connectable="0" parent="nDQjw-isrJEir62hwn1z-70">
          <mxGeometry x="-0.4251" y="-5" relative="1" as="geometry">
            <mxPoint x="-6" y="-5" as="offset" />
          </mxGeometry>
        </mxCell>
        <mxCell id="nDQjw-isrJEir62hwn1z-71" style="edgeStyle=orthogonalEdgeStyle;rounded=0;orthogonalLoop=1;jettySize=auto;html=1;" edge="1" parent="1" source="nDQjw-isrJEir62hwn1z-69">
          <mxGeometry relative="1" as="geometry">
            <mxPoint x="240" y="2690" as="targetPoint" />
          </mxGeometry>
        </mxCell>
        <mxCell id="nDQjw-isrJEir62hwn1z-72" value="true" style="edgeLabel;html=1;align=center;verticalAlign=middle;resizable=0;points=[];" vertex="1" connectable="0" parent="nDQjw-isrJEir62hwn1z-71">
          <mxGeometry x="-0.394" y="-4" relative="1" as="geometry">
            <mxPoint as="offset" />
          </mxGeometry>
        </mxCell>
        <mxCell id="nDQjw-isrJEir62hwn1z-69" value="a&amp;gt;b" style="rhombus;whiteSpace=wrap;html=1;" vertex="1" parent="1">
          <mxGeometry x="390" y="2550" width="80" height="80" as="geometry" />
        </mxCell>
        <mxCell id="nDQjw-isrJEir62hwn1z-76" style="edgeStyle=orthogonalEdgeStyle;rounded=0;orthogonalLoop=1;jettySize=auto;html=1;" edge="1" parent="1" source="nDQjw-isrJEir62hwn1z-74">
          <mxGeometry relative="1" as="geometry">
            <mxPoint x="420" y="2800" as="targetPoint" />
          </mxGeometry>
        </mxCell>
        <mxCell id="nDQjw-isrJEir62hwn1z-82" value="false" style="edgeLabel;html=1;align=center;verticalAlign=middle;resizable=0;points=[];" vertex="1" connectable="0" parent="nDQjw-isrJEir62hwn1z-76">
          <mxGeometry x="-0.4185" y="2" relative="1" as="geometry">
            <mxPoint as="offset" />
          </mxGeometry>
        </mxCell>
        <mxCell id="nDQjw-isrJEir62hwn1z-77" style="edgeStyle=orthogonalEdgeStyle;rounded=0;orthogonalLoop=1;jettySize=auto;html=1;" edge="1" parent="1" source="nDQjw-isrJEir62hwn1z-74">
          <mxGeometry relative="1" as="geometry">
            <mxPoint x="110" y="2800" as="targetPoint" />
          </mxGeometry>
        </mxCell>
        <mxCell id="nDQjw-isrJEir62hwn1z-86" value="true" style="edgeLabel;html=1;align=center;verticalAlign=middle;resizable=0;points=[];" vertex="1" connectable="0" parent="nDQjw-isrJEir62hwn1z-77">
          <mxGeometry x="-0.526" y="-3" relative="1" as="geometry">
            <mxPoint as="offset" />
          </mxGeometry>
        </mxCell>
        <mxCell id="nDQjw-isrJEir62hwn1z-74" value="a&amp;gt;c" style="rhombus;whiteSpace=wrap;html=1;" vertex="1" parent="1">
          <mxGeometry x="200" y="2690" width="80" height="80" as="geometry" />
        </mxCell>
        <mxCell id="nDQjw-isrJEir62hwn1z-78" style="edgeStyle=orthogonalEdgeStyle;rounded=0;orthogonalLoop=1;jettySize=auto;html=1;" edge="1" parent="1" source="nDQjw-isrJEir62hwn1z-75">
          <mxGeometry relative="1" as="geometry">
            <mxPoint x="420" y="2800" as="targetPoint" />
          </mxGeometry>
        </mxCell>
        <mxCell id="nDQjw-isrJEir62hwn1z-83" value="false" style="edgeLabel;html=1;align=center;verticalAlign=middle;resizable=0;points=[];" vertex="1" connectable="0" parent="nDQjw-isrJEir62hwn1z-78">
          <mxGeometry x="-0.4578" relative="1" as="geometry">
            <mxPoint as="offset" />
          </mxGeometry>
        </mxCell>
        <mxCell id="nDQjw-isrJEir62hwn1z-80" style="edgeStyle=orthogonalEdgeStyle;rounded=0;orthogonalLoop=1;jettySize=auto;html=1;" edge="1" parent="1" source="nDQjw-isrJEir62hwn1z-75">
          <mxGeometry relative="1" as="geometry">
            <mxPoint x="720" y="2800" as="targetPoint" />
          </mxGeometry>
        </mxCell>
        <mxCell id="nDQjw-isrJEir62hwn1z-84" value="true" style="edgeLabel;html=1;align=center;verticalAlign=middle;resizable=0;points=[];" vertex="1" connectable="0" parent="nDQjw-isrJEir62hwn1z-80">
          <mxGeometry x="-0.4259" relative="1" as="geometry">
            <mxPoint as="offset" />
          </mxGeometry>
        </mxCell>
        <mxCell id="nDQjw-isrJEir62hwn1z-75" value="b&amp;gt;c" style="rhombus;whiteSpace=wrap;html=1;" vertex="1" parent="1">
          <mxGeometry x="560" y="2690" width="80" height="80" as="geometry" />
        </mxCell>
        <mxCell id="nDQjw-isrJEir62hwn1z-87" value="a en boyuk ededdir" style="shape=document;whiteSpace=wrap;html=1;boundedLbl=1;" vertex="1" parent="1">
          <mxGeometry x="50" y="2800" width="120" height="80" as="geometry" />
        </mxCell>
        <mxCell id="nDQjw-isrJEir62hwn1z-91" style="edgeStyle=orthogonalEdgeStyle;rounded=0;orthogonalLoop=1;jettySize=auto;html=1;" edge="1" parent="1">
          <mxGeometry relative="1" as="geometry">
            <mxPoint x="419.5" y="2990" as="targetPoint" />
            <mxPoint x="419.5" y="2860" as="sourcePoint" />
          </mxGeometry>
        </mxCell>
        <mxCell id="nDQjw-isrJEir62hwn1z-88" value="c en boyuk ededdir" style="shape=document;whiteSpace=wrap;html=1;boundedLbl=1;" vertex="1" parent="1">
          <mxGeometry x="360" y="2800" width="120" height="80" as="geometry" />
        </mxCell>
        <mxCell id="nDQjw-isrJEir62hwn1z-93" style="edgeStyle=orthogonalEdgeStyle;rounded=0;orthogonalLoop=1;jettySize=auto;html=1;entryX=1;entryY=0.5;entryDx=0;entryDy=0;" edge="1" parent="1" source="nDQjw-isrJEir62hwn1z-89" target="nDQjw-isrJEir62hwn1z-92">
          <mxGeometry relative="1" as="geometry" />
        </mxCell>
        <mxCell id="nDQjw-isrJEir62hwn1z-89" value="b en boyuk ededdir" style="shape=document;whiteSpace=wrap;html=1;boundedLbl=1;" vertex="1" parent="1">
          <mxGeometry x="660" y="2800" width="120" height="80" as="geometry" />
        </mxCell>
        <mxCell id="nDQjw-isrJEir62hwn1z-92" value="END" style="rounded=1;whiteSpace=wrap;html=1;" vertex="1" parent="1">
          <mxGeometry x="360" y="2990" width="120" height="60" as="geometry" />
        </mxCell>
        <mxCell id="nDQjw-isrJEir62hwn1z-94" style="edgeStyle=orthogonalEdgeStyle;rounded=0;orthogonalLoop=1;jettySize=auto;html=1;entryX=0;entryY=0.5;entryDx=0;entryDy=0;" edge="1" parent="1" source="nDQjw-isrJEir62hwn1z-87" target="nDQjw-isrJEir62hwn1z-92">
          <mxGeometry relative="1" as="geometry">
            <mxPoint x="280" y="3030" as="targetPoint" />
          </mxGeometry>
        </mxCell>
        <mxCell id="nDQjw-isrJEir62hwn1z-98" style="edgeStyle=orthogonalEdgeStyle;rounded=0;orthogonalLoop=1;jettySize=auto;html=1;" edge="1" parent="1" source="nDQjw-isrJEir62hwn1z-97">
          <mxGeometry relative="1" as="geometry">
            <mxPoint x="420" y="3280" as="targetPoint" />
          </mxGeometry>
        </mxCell>
        <mxCell id="nDQjw-isrJEir62hwn1z-97" value="start" style="rounded=1;whiteSpace=wrap;html=1;" vertex="1" parent="1">
          <mxGeometry x="360" y="3150" width="120" height="60" as="geometry" />
        </mxCell>
        <mxCell id="nDQjw-isrJEir62hwn1z-110" style="edgeStyle=orthogonalEdgeStyle;rounded=0;orthogonalLoop=1;jettySize=auto;html=1;" edge="1" parent="1" source="nDQjw-isrJEir62hwn1z-99">
          <mxGeometry relative="1" as="geometry">
            <mxPoint x="420" y="3400" as="targetPoint" />
          </mxGeometry>
        </mxCell>
        <mxCell id="nDQjw-isrJEir62hwn1z-99" value="a, b, S" style="shape=parallelogram;perimeter=parallelogramPerimeter;whiteSpace=wrap;html=1;fixedSize=1;" vertex="1" parent="1">
          <mxGeometry x="360" y="3280" width="120" height="60" as="geometry" />
        </mxCell>
        <mxCell id="nDQjw-isrJEir62hwn1z-102" style="edgeStyle=orthogonalEdgeStyle;rounded=0;orthogonalLoop=1;jettySize=auto;html=1;entryX=0.5;entryY=0;entryDx=0;entryDy=0;" edge="1" parent="1" source="nDQjw-isrJEir62hwn1z-100" target="nDQjw-isrJEir62hwn1z-69">
          <mxGeometry relative="1" as="geometry" />
        </mxCell>
        <mxCell id="nDQjw-isrJEir62hwn1z-103" value="true" style="edgeLabel;html=1;align=center;verticalAlign=middle;resizable=0;points=[];" vertex="1" connectable="0" parent="nDQjw-isrJEir62hwn1z-102">
          <mxGeometry x="0.296" y="-4" relative="1" as="geometry">
            <mxPoint as="offset" />
          </mxGeometry>
        </mxCell>
        <mxCell id="nDQjw-isrJEir62hwn1z-100" value="a&amp;lt;&amp;gt;b &amp;amp;&amp;amp; a&amp;lt;&amp;gt;c&lt;div&gt;&amp;amp;&amp;amp; b&amp;lt;&amp;gt;c&lt;/div&gt;" style="rhombus;whiteSpace=wrap;html=1;" vertex="1" parent="1">
          <mxGeometry x="360" y="2390" width="140" height="130" as="geometry" />
        </mxCell>
        <mxCell id="nDQjw-isrJEir62hwn1z-106" value="" style="endArrow=none;html=1;rounded=0;" edge="1" parent="1">
          <mxGeometry width="50" height="50" relative="1" as="geometry">
            <mxPoint x="560" y="2450" as="sourcePoint" />
            <mxPoint x="560" y="2330" as="targetPoint" />
          </mxGeometry>
        </mxCell>
        <mxCell id="nDQjw-isrJEir62hwn1z-109" value="false" style="edgeLabel;html=1;align=center;verticalAlign=middle;resizable=0;points=[];" vertex="1" connectable="0" parent="nDQjw-isrJEir62hwn1z-106">
          <mxGeometry x="0.1767" y="-1" relative="1" as="geometry">
            <mxPoint as="offset" />
          </mxGeometry>
        </mxCell>
        <mxCell id="nDQjw-isrJEir62hwn1z-107" value="" style="endArrow=classic;html=1;rounded=0;entryX=1;entryY=0.5;entryDx=0;entryDy=0;" edge="1" parent="1" target="nDQjw-isrJEir62hwn1z-66">
          <mxGeometry width="50" height="50" relative="1" as="geometry">
            <mxPoint x="560" y="2330" as="sourcePoint" />
            <mxPoint x="570" y="2300" as="targetPoint" />
          </mxGeometry>
        </mxCell>
        <mxCell id="nDQjw-isrJEir62hwn1z-108" value="" style="endArrow=none;html=1;rounded=0;exitX=1;exitY=0.5;exitDx=0;exitDy=0;" edge="1" parent="1" source="nDQjw-isrJEir62hwn1z-100">
          <mxGeometry width="50" height="50" relative="1" as="geometry">
            <mxPoint x="510" y="2460" as="sourcePoint" />
            <mxPoint x="560" y="2450" as="targetPoint" />
          </mxGeometry>
        </mxCell>
        <mxCell id="nDQjw-isrJEir62hwn1z-112" style="edgeStyle=orthogonalEdgeStyle;rounded=0;orthogonalLoop=1;jettySize=auto;html=1;" edge="1" parent="1" source="nDQjw-isrJEir62hwn1z-111">
          <mxGeometry relative="1" as="geometry">
            <mxPoint x="420" y="3530" as="targetPoint" />
          </mxGeometry>
        </mxCell>
        <mxCell id="nDQjw-isrJEir62hwn1z-111" value="S=a*a*a" style="rounded=0;whiteSpace=wrap;html=1;" vertex="1" parent="1">
          <mxGeometry x="360" y="3400" width="120" height="60" as="geometry" />
        </mxCell>
        <mxCell id="nDQjw-isrJEir62hwn1z-114" style="edgeStyle=orthogonalEdgeStyle;rounded=0;orthogonalLoop=1;jettySize=auto;html=1;" edge="1" parent="1" source="nDQjw-isrJEir62hwn1z-113">
          <mxGeometry relative="1" as="geometry">
            <mxPoint x="600" y="3680" as="targetPoint" />
          </mxGeometry>
        </mxCell>
        <mxCell id="nDQjw-isrJEir62hwn1z-119" value="false" style="edgeLabel;html=1;align=center;verticalAlign=middle;resizable=0;points=[];" vertex="1" connectable="0" parent="nDQjw-isrJEir62hwn1z-114">
          <mxGeometry x="-0.4874" y="5" relative="1" as="geometry">
            <mxPoint as="offset" />
          </mxGeometry>
        </mxCell>
        <mxCell id="nDQjw-isrJEir62hwn1z-115" style="edgeStyle=orthogonalEdgeStyle;rounded=0;orthogonalLoop=1;jettySize=auto;html=1;" edge="1" parent="1" source="nDQjw-isrJEir62hwn1z-113">
          <mxGeometry relative="1" as="geometry">
            <mxPoint x="240" y="3680" as="targetPoint" />
          </mxGeometry>
        </mxCell>
        <mxCell id="nDQjw-isrJEir62hwn1z-118" value="true" style="edgeLabel;html=1;align=center;verticalAlign=middle;resizable=0;points=[];" vertex="1" connectable="0" parent="nDQjw-isrJEir62hwn1z-115">
          <mxGeometry x="-0.4405" y="-2" relative="1" as="geometry">
            <mxPoint as="offset" />
          </mxGeometry>
        </mxCell>
        <mxCell id="nDQjw-isrJEir62hwn1z-113" value="S&amp;gt;b" style="rhombus;whiteSpace=wrap;html=1;" vertex="1" parent="1">
          <mxGeometry x="380" y="3530" width="80" height="80" as="geometry" />
        </mxCell>
        <mxCell id="nDQjw-isrJEir62hwn1z-120" style="edgeStyle=orthogonalEdgeStyle;rounded=0;orthogonalLoop=1;jettySize=auto;html=1;" edge="1" parent="1" source="nDQjw-isrJEir62hwn1z-116">
          <mxGeometry relative="1" as="geometry">
            <mxPoint x="420" y="3800" as="targetPoint" />
          </mxGeometry>
        </mxCell>
        <mxCell id="nDQjw-isrJEir62hwn1z-116" value="a-nin kubu b-den boyukdur" style="shape=document;whiteSpace=wrap;html=1;boundedLbl=1;" vertex="1" parent="1">
          <mxGeometry x="180" y="3680" width="120" height="80" as="geometry" />
        </mxCell>
        <mxCell id="nDQjw-isrJEir62hwn1z-121" style="edgeStyle=orthogonalEdgeStyle;rounded=0;orthogonalLoop=1;jettySize=auto;html=1;" edge="1" parent="1" source="nDQjw-isrJEir62hwn1z-117">
          <mxGeometry relative="1" as="geometry">
            <mxPoint x="420" y="3800" as="targetPoint" />
          </mxGeometry>
        </mxCell>
        <mxCell id="nDQjw-isrJEir62hwn1z-117" value="a-nin kubu b-den boyuk deyil" style="shape=document;whiteSpace=wrap;html=1;boundedLbl=1;" vertex="1" parent="1">
          <mxGeometry x="540" y="3680" width="120" height="80" as="geometry" />
        </mxCell>
        <mxCell id="nDQjw-isrJEir62hwn1z-122" value="END" style="rounded=1;whiteSpace=wrap;html=1;" vertex="1" parent="1">
          <mxGeometry x="360" y="3800" width="120" height="60" as="geometry" />
        </mxCell>
        <mxCell id="nDQjw-isrJEir62hwn1z-125" style="edgeStyle=orthogonalEdgeStyle;rounded=0;orthogonalLoop=1;jettySize=auto;html=1;entryX=0.5;entryY=0;entryDx=0;entryDy=0;" edge="1" parent="1" source="nDQjw-isrJEir62hwn1z-123" target="nDQjw-isrJEir62hwn1z-124">
          <mxGeometry relative="1" as="geometry" />
        </mxCell>
        <mxCell id="nDQjw-isrJEir62hwn1z-123" value="START" style="rounded=1;whiteSpace=wrap;html=1;" vertex="1" parent="1">
          <mxGeometry x="360" y="4000" width="120" height="60" as="geometry" />
        </mxCell>
        <mxCell id="nDQjw-isrJEir62hwn1z-126" style="edgeStyle=orthogonalEdgeStyle;rounded=0;orthogonalLoop=1;jettySize=auto;html=1;" edge="1" parent="1" source="nDQjw-isrJEir62hwn1z-124">
          <mxGeometry relative="1" as="geometry">
            <mxPoint x="420" y="4280" as="targetPoint" />
          </mxGeometry>
        </mxCell>
        <mxCell id="nDQjw-isrJEir62hwn1z-124" value="a" style="shape=parallelogram;perimeter=parallelogramPerimeter;whiteSpace=wrap;html=1;fixedSize=1;" vertex="1" parent="1">
          <mxGeometry x="365" y="4140" width="110" height="60" as="geometry" />
        </mxCell>
        <mxCell id="nDQjw-isrJEir62hwn1z-128" style="edgeStyle=orthogonalEdgeStyle;rounded=0;orthogonalLoop=1;jettySize=auto;html=1;" edge="1" parent="1" source="nDQjw-isrJEir62hwn1z-127">
          <mxGeometry relative="1" as="geometry">
            <mxPoint x="420" y="4560" as="targetPoint" />
          </mxGeometry>
        </mxCell>
        <mxCell id="nDQjw-isrJEir62hwn1z-132" value="true" style="edgeLabel;html=1;align=center;verticalAlign=middle;resizable=0;points=[];" vertex="1" connectable="0" parent="nDQjw-isrJEir62hwn1z-128">
          <mxGeometry x="-0.2778" relative="1" as="geometry">
            <mxPoint y="-42" as="offset" />
          </mxGeometry>
        </mxCell>
        <mxCell id="nDQjw-isrJEir62hwn1z-131" style="edgeStyle=orthogonalEdgeStyle;rounded=0;orthogonalLoop=1;jettySize=auto;html=1;entryX=0.5;entryY=0;entryDx=0;entryDy=0;" edge="1" parent="1" source="nDQjw-isrJEir62hwn1z-127" target="nDQjw-isrJEir62hwn1z-130">
          <mxGeometry relative="1" as="geometry" />
        </mxCell>
        <mxCell id="nDQjw-isrJEir62hwn1z-133" value="false" style="edgeLabel;html=1;align=center;verticalAlign=middle;resizable=0;points=[];" vertex="1" connectable="0" parent="nDQjw-isrJEir62hwn1z-131">
          <mxGeometry x="-0.2982" y="1" relative="1" as="geometry">
            <mxPoint as="offset" />
          </mxGeometry>
        </mxCell>
        <mxCell id="nDQjw-isrJEir62hwn1z-127" value="a%5==0" style="rhombus;whiteSpace=wrap;html=1;" vertex="1" parent="1">
          <mxGeometry x="380" y="4280" width="80" height="80" as="geometry" />
        </mxCell>
        <mxCell id="nDQjw-isrJEir62hwn1z-135" style="edgeStyle=orthogonalEdgeStyle;rounded=0;orthogonalLoop=1;jettySize=auto;html=1;" edge="1" parent="1" source="nDQjw-isrJEir62hwn1z-130">
          <mxGeometry relative="1" as="geometry">
            <mxPoint x="420" y="4560" as="targetPoint" />
          </mxGeometry>
        </mxCell>
        <mxCell id="nDQjw-isrJEir62hwn1z-136" value="true" style="edgeLabel;html=1;align=center;verticalAlign=middle;resizable=0;points=[];" vertex="1" connectable="0" parent="nDQjw-isrJEir62hwn1z-135">
          <mxGeometry x="-0.4852" y="-4" relative="1" as="geometry">
            <mxPoint as="offset" />
          </mxGeometry>
        </mxCell>
        <mxCell id="nDQjw-isrJEir62hwn1z-137" style="edgeStyle=orthogonalEdgeStyle;rounded=0;orthogonalLoop=1;jettySize=auto;html=1;" edge="1" parent="1" source="nDQjw-isrJEir62hwn1z-130">
          <mxGeometry relative="1" as="geometry">
            <mxPoint x="600" y="4560" as="targetPoint" />
          </mxGeometry>
        </mxCell>
        <mxCell id="nDQjw-isrJEir62hwn1z-140" value="false" style="edgeLabel;html=1;align=center;verticalAlign=middle;resizable=0;points=[];" vertex="1" connectable="0" parent="nDQjw-isrJEir62hwn1z-137">
          <mxGeometry x="-0.1951" relative="1" as="geometry">
            <mxPoint as="offset" />
          </mxGeometry>
        </mxCell>
        <mxCell id="nDQjw-isrJEir62hwn1z-130" value="a%7==0" style="rhombus;whiteSpace=wrap;html=1;" vertex="1" parent="1">
          <mxGeometry x="560" y="4400" width="80" height="80" as="geometry" />
        </mxCell>
        <mxCell id="nDQjw-isrJEir62hwn1z-141" style="edgeStyle=orthogonalEdgeStyle;rounded=0;orthogonalLoop=1;jettySize=auto;html=1;" edge="1" parent="1" source="nDQjw-isrJEir62hwn1z-138">
          <mxGeometry relative="1" as="geometry">
            <mxPoint x="520" y="4730" as="targetPoint" />
          </mxGeometry>
        </mxCell>
        <mxCell id="nDQjw-isrJEir62hwn1z-138" value="a 5-e ve ya 7-ye&lt;div&gt;bolunur&lt;/div&gt;" style="shape=document;whiteSpace=wrap;html=1;boundedLbl=1;" vertex="1" parent="1">
          <mxGeometry x="358.75" y="4560" width="122.5" height="80" as="geometry" />
        </mxCell>
        <mxCell id="nDQjw-isrJEir62hwn1z-142" style="edgeStyle=orthogonalEdgeStyle;rounded=0;orthogonalLoop=1;jettySize=auto;html=1;" edge="1" parent="1" source="nDQjw-isrJEir62hwn1z-139">
          <mxGeometry relative="1" as="geometry">
            <mxPoint x="520" y="4730" as="targetPoint" />
          </mxGeometry>
        </mxCell>
        <mxCell id="nDQjw-isrJEir62hwn1z-139" value="a 5-e ve ya 7-ye bolunmur" style="shape=document;whiteSpace=wrap;html=1;boundedLbl=1;" vertex="1" parent="1">
          <mxGeometry x="540" y="4560" width="120" height="80" as="geometry" />
        </mxCell>
        <mxCell id="nDQjw-isrJEir62hwn1z-143" value="END" style="rounded=1;whiteSpace=wrap;html=1;" vertex="1" parent="1">
          <mxGeometry x="460" y="4730" width="120" height="60" as="geometry" />
        </mxCell>
        <mxCell id="nDQjw-isrJEir62hwn1z-144" value="2" style="text;html=1;align=center;verticalAlign=middle;whiteSpace=wrap;rounded=0;" vertex="1" parent="1">
          <mxGeometry x="400" y="1480" width="60" height="30" as="geometry" />
        </mxCell>
      </root>
    </mxGraphModel>
  </diagram>
</mxfile>
